<svg width="186" height="53" viewBox="0 0 186 53" xmlns="http://www.w3.org/2000/svg"><title>logo_clearleft</title><desc>Created with Sketch.</desc><defs><linearGradient x1="50%" y1="0%" x2="58.681%" y2="50%" id="a"><stop stop-color="#ce7" offset="0%"/><stop stop-color="#bd6" offset="100%"/></linearGradient><linearGradient x1="100%" y1="31.065%" x2="0%" y2="68.935%" id="b"><stop stop-color="#ac3" offset="0%"/><stop stop-color="#bd5" offset="100%"/></linearGradient><linearGradient x1="18.663%" y1="5%" x2="43.733%" y2="100%" id="c"><stop stop-color="#ad4" offset="0%"/><stop stop-color="#9c3" offset="100%"/></linearGradient><linearGradient x1="40%" y1="43.151%" y2="84.245%" id="d"><stop stop-color="#90C030" offset="0%"/><stop stop-color="#7a1" offset="100%"/></linearGradient><linearGradient x1="81.337%" y1="5%" x2="106.406%" y2="100%" id="e"><stop stop-color="#EDF3D5" offset="0%"/><stop stop-color="#F5F9E7" offset="100%"/></linearGradient><linearGradient x1="100%" y1="20%" y2="80%" id="f"><stop stop-color="#E7F1CB" offset="0%"/><stop stop-color="#fff" offset="100%"/></linearGradient><linearGradient x1="84.722%" y1="5%" x2="112.5%" y2="100%" id="g"><stop stop-color="#EDF3D5" offset="0%"/><stop stop-color="#F5F9E7" offset="100%"/></linearGradient><radialGradient fx="50%" fy="50%" r="100%"><stop stop-color="#fff" stop-opacity=".3" offset="0%"/><stop stop-color="#fff" stop-opacity="0" offset="100%"/></radialGradient></defs><g fill="none"><path d="M171.386 35.195v-15.398h7.086v9.679c0 2.068.221 3.651 1.151 4.487.797.792 2.037 1.232 3.454 1.232 1.24 0 2.214-.176 2.834-.396l-.177-2.2c-.354.132-.974.22-1.771.22-1.771 0-2.391-1.188-2.391-3.344v-9.679h4.429v-2.2h-4.429v-4.839l-3.1.88v3.959h-7.086v-.88c0-2.464.797-4.619 3.454-4.619.886 0 1.506.176 1.993.352l.399-2.332c-.576-.264-1.55-.528-2.657-.528-1.417 0-3.011.484-4.207 1.584-1.55 1.364-2.081 3.3-2.081 5.543v.88h-2.657v2.2h2.657v15.398h3.1zm-6.111-8.051c.044-.352.133-.88.133-1.54 0-3.08-1.639-8.007-7.351-8.007-5.004 0-8.326 4.091-8.326 9.239 0 4.971 3.454 8.359 8.724 8.359 2.746 0 4.694-.528 5.89-1.056l-.576-2.156c-1.284.484-2.657.836-4.871.836-3.144 0-5.846-1.672-5.89-5.675h12.267zm-12.223-2.376c.221-2.068 1.594-4.795 4.783-4.795 3.499 0 4.34 2.904 4.296 4.795h-9.079zm-8.104 10.427h2.967v-25.516h-3.1v25.472l.133.044zm-7.219 0v-9.503c0-.572 0-1.144.089-1.584.443-2.42 1.993-4.135 4.163-4.135.443 0 .709 0 1.063.088v-2.42l-.886-.044c-2.081 0-3.941 1.144-4.739 3.212h-.133l-.133-3.168h-2.879c.089 1.628.133 3.388.133 5.455v12.098h3.321zm-6.2 0c-.221-1.188-.443-2.728-.443-4.223v-6.599c0-3.212-1.373-6.775-6.82-6.775-2.17 0-4.251.616-5.757 1.54l.753 1.98c1.284-.704 2.967-1.144 4.561-1.144 3.587 0 3.941 2.288 3.941 3.607v.308c-6.687-.044-10.54 2.464-10.54 6.643 0 2.156 1.86 4.663 5.447 4.663 2.436 0 4.34-1.232 5.314-2.596h.089l.354 2.596h3.1zm-3.543-5.939c0 .132-.133.528-.221.836-.531 1.408-2.037 2.728-4.296 2.728-1.594 0-2.967-.924-2.967-2.86 0-3.168 4.03-3.651 7.484-3.563v2.86zm-12.001-3.651c0-3.08-1.461-8.007-7.174-8.007-5.004 0-8.281 4.091-8.281 9.239 0 4.971 3.41 8.359 8.68 8.359 2.746 0 4.694-.528 5.89-1.056l-.576-2.156c-1.284.484-2.657.836-4.871.836-3.144 0-5.934-1.54-6.023-5.543h12.223s.133-1.012.133-1.672zm-12.356-.528c.266-2.068 1.771-5.103 4.96-5.103 3.499 0 4.384 3.212 4.34 5.103h-9.3zm-8.636 10.119h3.321v-25.516h-3.1v25.472l-.221.044zm-3.41-3.344c-1.24.616-3.189.968-5.049.968-5.801 0-9.167-3.651-9.167-9.371 0-6.159 3.72-9.635 9.3-9.635 1.993 0 3.676.396 4.827.968l.753-2.376c-.841-.396-2.701-.968-5.669-.968-7.396 0-12.489 4.795-12.489 12.098 0 7.655 5.093 11.658 11.824 11.658 2.879 0 5.137-.528 6.289-1.012l-.62-2.332z" id="Shape" fill="#333"/><g><path id="Shape" fill="url(#a)" d="M63.771 9.679l-21.257-8.799-21.257 8.799 21.257 8.799z"/><path id="Shape" fill="url(#b)" d="M63.771 9.679v25.824l-21.257 8.491v-25.516z"/><path id="Shape" fill="url(#c)" d="M21.257 9.679v16.718l21.257-7.919z"/><path id="Shape" fill="url(#d)" d="M21.257 26.396v8.799l21.257 8.799v-25.516z"/><path id="Shape" fill="#E6ECCC" d="M21.257 35.195v17.597l21.257-8.799z"/><path id="Shape" fill="url(#e)" d="M21.257 9.679v16.718l-21.257-7.919z"/><path id="Shape" fill="url(#f)" d="M0 18.477v25.516l21.257 8.799v-26.396z"/><path fill="url(#g)" d="M21.257 52.793v-17.597l-21.257 8.799z"/></g><path d="M0 0h186v52.792h-186z" fill="none"/></g></svg>