<?xml version="1.0" encoding="UTF-8" standalone="no"?>
<svg width="130px" height="44px" viewBox="0 0 130 44" version="1.1" xmlns="http://www.w3.org/2000/svg" xmlns:xlink="http://www.w3.org/1999/xlink">
    <!-- Generator: Sketch 40.3 (33839) - http://www.bohemiancoding.com/sketch -->
    <title>invision-logo-pink</title>
    <desc>Created with Sketch.</desc>
    <defs>
        <polygon id="path-1" points="43.5532995 43.543401 0.00989847716 43.543401 0.00989847716 0 21.781599 0 43.5532995 0"></polygon>
    </defs>
    <g id="Page-1" stroke="none" stroke-width="1" fill="none" fill-rule="evenodd">
        <g id="invision-logo-pink">
            <g id="Page-1">
                <g>
                    <g id="invision-logo-pink">
                        <g id="Group-3">
                            <g id="Fill-1-Clipped">
                                <mask id="mask-2" fill="white">
                                    <use xlink:href="#path-1"></use>
                                </mask>
                                <g id="path-1"></g>
                                <path d="M39.6051269,0 L3.94817259,0 C1.76770305,0 0,1.76770305 0,3.94817259 L0,39.6051269 C0,41.7855964 1.76770305,43.5532995 3.94817259,43.5532995 L39.6051269,43.5532995 C41.7855964,43.5532995 43.5532995,41.7855964 43.5532995,39.6051269 L43.5532995,3.94817259 C43.5532995,1.76770305 41.7855964,0 39.6051269,0" id="Fill-1" fill="#DC385F" mask="url(#mask-2)"></path>
                            </g>
                        </g>
                        <path d="M84.7870558,33.8112183 L88.9561294,33.8112183 L88.9561294,15.6226015 L84.7870558,15.6226015 L84.7870558,33.8112183 L84.7870558,33.8112183 Z M123.438299,15.2429949 C120.613109,15.2429949 118.925584,16.724467 117.753934,18.4466371 L117.753934,15.6226015 L113.586015,15.6226015 L113.586015,33.8112183 L117.753934,33.8112183 L117.753934,23.5446827 C117.753934,20.7201523 119.442119,19.0324619 121.853883,19.0324619 C124.334607,19.0324619 125.746459,20.6510279 125.746459,23.4757234 L125.746459,33.8112183 L129.914873,33.8112183 L129.914873,22.2361041 C129.914873,17.9990609 127.537754,15.2429949 123.438299,15.2429949 L123.438299,15.2429949 L123.438299,15.2429949 Z M101.391751,30.6075761 C98.1529695,30.6075761 95.8449746,27.9546193 95.8449746,24.7163325 C95.8449746,21.5131853 97.980736,18.8942132 101.322627,18.8942132 C104.594898,18.8942132 106.903388,21.5466751 106.903388,24.7854569 C106.903388,27.989099 104.767132,30.6075761 101.391751,30.6075761 L101.391751,30.6075761 L101.391751,30.6075761 Z M101.391751,15.2429949 C95.8109898,15.2429949 91.6765609,19.5485025 91.6765609,24.7854569 C91.6765609,29.9866117 95.7758503,34.2243147 101.322627,34.2243147 C106.938528,34.2243147 111.072462,29.9181472 111.072462,24.7163325 C111.072462,19.480533 106.972018,15.2429949 101.391751,15.2429949 L101.391751,15.2429949 L101.391751,15.2429949 Z M49.7890102,28.9878553 L44.8973477,15.6226015 L40.4187817,15.6226015 L47.8946066,33.9483122 L51.6494289,33.9483122 L59.0904442,15.6226015 L54.7154822,15.6226015 L49.7890102,28.9878553 L49.7890102,28.9878553 L49.7890102,28.9878553 Z M76.3827538,23.0632868 C74.2464975,22.373198 72.2823096,21.8225127 72.2823096,20.513934 L72.2823096,20.4448096 C72.2823096,19.3769289 73.2126015,18.6188706 74.8316624,18.6188706 C75.6213959,18.6188706 76.5053299,18.8000127 77.4189594,19.1205584 L77.4182995,19.1182487 C77.4182995,19.1182487 77.4273731,19.122703 77.4445305,19.1306218 C77.5230584,19.1585025 77.6029061,19.1896827 77.6825888,19.2197081 C78.3418274,19.428236 80.1204188,19.7068782 81.6190482,17.3794162 C79.6895051,16.1041624 77.2099365,15.3116244 74.9347716,15.3116244 C71.318198,15.3116244 68.4588579,17.4127411 68.4588579,20.858401 L68.4588579,20.9275254 C68.4588579,24.4065102 71.4557868,25.5088706 74.1427284,26.2669289 C76.2791497,26.9212183 78.2086929,27.4032741 78.2086929,28.8156218 L78.2086929,28.8842513 C78.2086929,30.0903807 77.174797,30.8482741 75.3835025,30.8482741 C74.1923858,30.8482741 72.8880964,30.5339975 71.5884264,29.9214467 C71.2144289,29.763731 69.2687183,29.0982234 67.6051142,31.4641244 C69.8718655,33.234302 72.7115736,34.1556853 75.2803934,34.1556853 C79.0687056,34.1556853 82.0321447,32.2617766 82.0321447,28.4366751 L82.0321447,28.3680457 C82.0321447,25.0959391 79.0352157,23.8898096 76.3827538,23.0632868 L76.3827538,23.0632868 L76.3827538,23.0632868 Z M61.1559264,33.8112183 L65.3243401,33.8112183 L65.3243401,15.6226015 L61.1559264,15.6226015 L61.1559264,33.8112183 L61.1559264,33.8112183 Z" id="Fill-4" fill="#DC385F"></path>
                        <path d="M14.5555457,13.7031218 C16.0033629,13.7031218 17.2160914,12.5682614 17.2160914,11.0810152 C17.2160914,9.59475888 16.0033629,8.46022843 14.5555457,8.46022843 C13.1078934,8.46022843 11.895165,9.59475888 11.895165,11.0810152 C11.895165,12.5682614 13.1078934,13.7031218 14.5555457,13.7031218" id="Fill-5" fill="#FFFFFF"></path>
                        <path d="M9.03879442,27.742297 C8.88256345,28.4074746 8.80403553,29.1257741 8.80403553,29.711764 C8.80403553,32.0205838 10.0561929,33.5533629 12.7167386,33.5533629 C14.9234391,33.5533629 16.7122589,32.2428046 18.0002157,30.1270051 L17.2137817,33.2834645 L21.5955076,33.2834645 L24.0998223,23.2391497 C24.725736,20.695901 25.9386294,19.3759391 27.7777665,19.3759391 C29.2254188,19.3759391 30.1253553,20.2762056 30.1253553,21.7624619 C30.1253553,22.1932107 30.0860914,22.6622335 29.9296954,23.1710152 L28.6382741,27.7878299 C28.4426142,28.4530076 28.3647462,29.1186802 28.3647462,29.744099 C28.3647462,31.9359518 29.6555076,33.5391751 32.3553173,33.5391751 C34.6638071,33.5391751 36.5026142,32.0530838 37.5200127,28.4924365 L35.7986675,27.8277538 C34.937665,30.2132868 34.1942893,30.6445305 33.6074746,30.6445305 C33.0204949,30.6445305 32.7073731,30.2535406 32.7073731,29.4713959 C32.7073731,29.1193401 32.785901,28.7285152 32.903033,28.2580076 L34.1553553,23.7599746 C34.4681472,22.7038071 34.5857741,21.7672462 34.5857741,20.9067386 C34.5857741,17.5419162 32.5509772,15.7859264 30.0860914,15.7859264 C27.7777665,15.7859264 25.4300127,17.8680711 24.2565482,20.0594289 L25.1170558,16.1261041 L18.4266751,16.1261041 L17.4874746,19.5905711 L20.617703,19.5905711 L18.6903046,27.3077538 C17.1764975,30.6725761 14.3960152,30.7271827 14.0470939,30.6489848 C13.4741371,30.5198096 13.1078934,30.3022081 13.1078934,29.5576777 C13.1078934,29.1280838 13.1859264,28.5110787 13.3815863,27.7670431 L16.3163198,16.1261041 L8.88256345,16.1261041 L7.94352792,19.5905711 L11.0341624,19.5905711 L9.03879442,27.742297" id="Fill-6" fill="#FFFFFF"></path>
                    </g>
                </g>
            </g>
        </g>
    </g>
</svg>