<svg width="156" height="45" viewBox="0 0 156 45" xmlns="http://www.w3.org/2000/svg"><title>Group 2</title><desc>Created with Sketch.</desc><g fill="none"><g><path d="M33.509 8.428c-.031-.217-.218-.341-.374-.341s-3.494-.248-3.494-.248-2.309-2.293-2.59-2.541c-.25-.248-.749-.186-.936-.124l-1.31.403c-.78-2.262-2.153-4.307-4.555-4.307h-.218c-.655-.868-1.529-1.27-2.246-1.27-5.616 0-8.299 6.971-9.142 10.504-2.184.682-3.744 1.146-3.931 1.208-1.217.372-1.248.403-1.404 1.549-.125.868-3.307 25.345-3.307 25.345l24.804 4.617 13.447-2.882c0-.031-4.711-31.697-4.742-31.914zm-10.078-2.479c-.624.186-1.342.403-2.09.651v-.465c0-1.363-.187-2.479-.499-3.377 1.248.186 2.059 1.58 2.59 3.191zm-4.15-2.882c.343.868.562 2.076.562 3.749v.248c-1.373.434-2.839.868-4.337 1.332.842-3.191 2.434-4.741 3.775-5.329zm-1.654-1.58c.25 0 .499.093.718.248-1.81.837-3.713 2.944-4.524 7.188-1.186.372-2.34.713-3.432 1.053.936-3.222 3.214-8.49 7.238-8.49z" fill="#95BF47"/><path d="M33.134 8.056c-.156 0-3.494-.248-3.494-.248s-2.309-2.293-2.59-2.541c-.094-.093-.218-.155-.343-.155l-1.872 38.111 13.447-2.882s-4.711-31.697-4.742-31.914c-.062-.217-.25-.341-.406-.372z" fill="#5E8E3E"/><path d="M20.249 15.43l-1.654 4.896s-1.466-.775-3.245-.775c-2.621 0-2.746 1.642-2.746 2.045 0 2.231 5.866 3.098 5.866 8.335 0 4.121-2.621 6.786-6.178 6.786-4.274 0-6.427-2.634-6.427-2.634l1.154-3.749s2.246 1.921 4.118 1.921c1.248 0 1.747-.961 1.747-1.673 0-2.913-4.805-3.036-4.805-7.839 0-4.028 2.902-7.932 8.798-7.932 2.246-.031 3.37.62 3.37.62z" fill="#fff"/></g><path d="M53.945 24.633c-1.342-.713-2.028-1.332-2.028-2.169 0-1.053.967-1.735 2.465-1.735 1.747 0 3.307.713 3.307.713l1.217-3.718s-1.123-.868-4.43-.868c-4.618 0-7.831 2.634-7.831 6.321 0 2.107 1.498 3.687 3.494 4.834 1.622.899 2.184 1.549 2.184 2.51 0 .992-.811 1.797-2.309 1.797-2.215 0-4.337-1.146-4.337-1.146l-1.31 3.718s1.934 1.301 5.21 1.301c4.742 0 8.174-2.324 8.174-6.507-.031-2.293-1.747-3.873-3.806-5.05z" fill="#000"/><path d="M72.852 16.794c-2.34 0-4.181 1.115-5.585 2.789l-.062-.031 2.028-10.535h-5.273l-5.148 26.832h5.273l1.747-9.171c.686-3.47 2.496-5.608 4.181-5.608 1.186 0 1.654.806 1.654 1.952 0 .713-.062 1.611-.218 2.324l-1.997 10.504h5.273l2.059-10.845c.218-1.146.374-2.51.374-3.439.031-3.005-1.529-4.772-4.306-4.772z" fill="#000"/><path d="M89.138 16.794c-6.365 0-10.577 5.701-10.577 12.053 0 4.059 2.527 7.343 7.27 7.343 6.24 0 10.452-5.546 10.452-12.053.031-3.78-2.184-7.343-7.145-7.343zm-2.59 15.368c-1.81 0-2.558-1.518-2.558-3.439 0-3.005 1.56-7.901 4.43-7.901 1.872 0 2.496 1.611 2.496 3.16 0 3.222-1.591 8.18-4.368 8.18z" fill="#000"/><path d="M109.824 16.794c-3.557 0-5.585 3.129-5.585 3.129h-.062l.312-2.82h-4.68c-.218 1.89-.655 4.803-1.061 6.971l-3.682 19.21h5.273l1.466-7.777h.125s1.092.682 3.089.682c6.209 0 10.265-6.321 10.265-12.704 0-3.532-1.591-6.693-5.46-6.693zm-5.054 15.43c-1.373 0-2.184-.775-2.184-.775l.874-4.896c.624-3.284 2.34-5.453 4.181-5.453 1.622 0 2.122 1.487 2.122 2.882 0 3.408-2.028 8.242-4.992 8.242z" fill="#000"/><path d="M122.834 9.264c-1.685 0-3.026 1.332-3.026 3.036 0 1.549.998 2.634 2.496 2.634h.062c1.654 0 3.058-1.115 3.089-3.036 0-1.549-1.03-2.634-2.621-2.634z" fill="#000"/><path fill="#000" d="M115.44 35.818h5.273l3.588-18.622h-5.304z"/><path d="M137.748 17.165h-3.682l.187-.868c.312-1.797 1.373-3.377 3.151-3.377.936 0 1.685.279 1.685.279l1.03-4.121s-.905-.465-2.87-.465c-1.872 0-3.744.527-5.179 1.735-1.81 1.518-2.652 3.718-3.058 5.949l-.156.868h-2.465l-.78 3.966h2.465l-2.808 14.687h5.273l2.808-14.687h3.65l.749-3.966z" fill="#000"/><path d="M150.478 17.196s-3.307 8.273-4.774 12.797h-.062c-.094-1.456-1.31-12.797-1.31-12.797h-5.554l3.182 17.072c.062.372.031.62-.125.868-.624 1.177-1.654 2.324-2.87 3.16-.998.713-2.122 1.177-2.995 1.487l1.466 4.462c1.061-.217 3.307-1.115 5.179-2.851 2.402-2.231 4.649-5.701 6.926-10.411l6.458-13.788h-5.522z" fill="#000"/></g></svg>