<svg width="170" height="52" viewBox="0 0 170 52" xmlns="http://www.w3.org/2000/svg"><title>logo_smashing</title><desc>Created with Sketch.</desc><defs><linearGradient x1="46.398%" y1="194.875%" x2="53.549%" y2="-83.429%"><stop stop-color="#E43A2C" offset="0%"/><stop stop-color="#ED8037" offset="50%"/><stop stop-color="#EC7A36" offset="60.6%"/><stop stop-color="#EA6A34" offset="74.5%"/><stop stop-color="#E74F2F" offset="90.1%"/><stop stop-color="#E43A2C" offset="100%"/></linearGradient><linearGradient x1="49.028%" y1="194.875%" x2="50.958%" y2="-83.429%" id="a"><stop stop-color="#E43A2C" offset="0%"/><stop stop-color="#ED8037" offset="50%"/><stop stop-color="#EC7A36" offset="60.6%"/><stop stop-color="#EA6A34" offset="74.5%"/><stop stop-color="#E74F2F" offset="90.1%"/><stop stop-color="#E43A2C" offset="100%"/></linearGradient><radialGradient cx="49.999%" cy="49.998%" fx="49.999%" fy="49.998%" r="42.728%" id="b"><stop stop-color="#fff" offset="0%"/><stop stop-color="#FEFAF9" stop-opacity=".894" offset="10.6%"/><stop stop-color="#FDECE9" stop-opacity=".755" offset="24.5%"/><stop stop-color="#F9D5CE" stop-opacity=".598" offset="40.2%"/><stop stop-color="#F5B6A8" stop-opacity=".428" offset="57.2%"/><stop stop-color="#F08D77" stop-opacity=".246" offset="75.4%"/><stop stop-color="#E95C3D" stop-opacity=".059" offset="94.1%"/><stop stop-color="#E74B29" stop-opacity="0" offset="100%"/></radialGradient><radialGradient cx="49.999%" cy="49.998%" fx="49.999%" fy="49.998%" r="42.728%" id="c"><stop stop-color="#F9BC3A" offset="0%"/><stop stop-color="#F8B639" stop-opacity=".843" offset="15.8%"/><stop stop-color="#F5A637" stop-opacity=".636" offset="36.4%"/><stop stop-color="#F18B33" stop-opacity=".403" offset="59.7%"/><stop stop-color="#EB652D" stop-opacity=".152" offset="84.8%"/><stop stop-color="#E74B29" stop-opacity="0" offset="100%"/></radialGradient></defs><g fill="none"><path d="M151.582 24.355c0-4.697 3.818-8.507 8.524-8.507 3.27 0 6.108 1.837 7.541 4.532l-3.133 1.015c-.956-1.41-2.573-2.338-4.408-2.338-2.932 0-5.307 2.37-5.307 5.298 0 2.924 2.376 5.296 5.308 5.296 1.63 0 3.088-.731 4.061-1.884l-1.866.306-2.262-2.258 4.869-.795 4.876-.796-.8 4.861-.8 4.857-2.269-2.257.221-1.336c-1.547 1.543-3.686 2.503-6.046 2.503-4.707 0-8.529-3.813-8.529-8.507l.02.01zm-98.548 2.533c-.016 1.023.17 1.904.559 2.648.388.744.91 1.355 1.562 1.837.668.48 1.428.827 2.282 1.044.871.233 1.764.35 2.68.35 1.133 0 2.127-.131 2.981-.394.871-.266 1.593-.629 2.167-1.095.589-.48 1.032-1.044 1.326-1.696.295-.65.442-1.357.445-2.114 0-.931-.202-1.688-.605-2.28-.384-.603-.852-1.083-1.398-1.438-.54-.358-1.092-.613-1.651-.769-.54-.172-.969-.287-1.281-.349l-2.542-.65c-.637-.171-1.138-.342-1.515-.512-.358-.171-.598-.357-.722-.558-.124-.199-.182-.465-.182-.791 0-.355.078-.65.234-.883.156-.231.351-.425.585-.581.254-.154.52-.265.819-.326.293-.062.592-.093.884-.093.455 0 .865.04 1.235.119.39.076.735.207 1.027.394.299.188.533.441.702.772.189.324.299.739.332 1.232h3.543c0-.96-.182-1.77-.559-2.438-.358-.681-.845-1.238-1.469-1.673-.618-.434-1.333-.746-2.139-.927-.787-.201-1.619-.298-2.49-.298-.748 0-1.489.104-2.236.305-.748.201-1.411.512-2.002.934-.592.421-1.073.947-1.443 1.582-.358.622-.533 1.355-.533 2.211 0 .765.137 1.414.423 1.952.293.532.676.973 1.144 1.329.468.357.995.655 1.586.882.59.22 1.196.402 1.814.558.605.175 1.208.331 1.794.467.592.143 1.118.305 1.586.493.468.188.839.421 1.118.7.297.279.442.648.442 1.096 0 .421-.107.772-.325 1.05-.216.266-.489.473-.814.629-.328.156-.676.266-1.05.324-.374.045-.722.071-1.047.071-.481 0-.949-.058-1.398-.162-.455-.13-.852-.305-1.19-.538-.332-.246-.592-.564-.793-.953-.202-.389-.306-.856-.306-1.414h-3.543l-.04-.046zm40.622-6.999l2.095 6.091h-4.31l2.216-6.091h-.001zm-8.079 12.303v-16.393h-5.149l-3.728 11.414-3.891-11.412h-5.149v16.593h3.425l.047-11.639 4.077 11.646h2.82l4.123-11.756v11.756h7.03l1.305-3.69h6.221l1.257 3.696h3.799l-6.221-16.593h-3.751l-6.215 16.399v-.02zm15.039-5.304c-.015 1.023.172 1.904.559 2.648.39.744.909 1.355 1.56 1.837.67.48 1.43.827 2.285 1.044.87.233 1.763.35 2.678.35 1.134 0 2.13-.131 2.984-.394.87-.266 1.591-.629 2.166-1.095.592-.48 1.034-1.044 1.329-1.696.294-.65.442-1.357.442-2.114 0-.931-.202-1.688-.605-2.28-.389-.603-.855-1.083-1.399-1.438-.543-.358-1.095-.613-1.655-.769-.543-.172-.97-.287-1.281-.349l-2.54-.65c-.637-.171-1.142-.342-1.515-.512-.358-.171-.598-.357-.722-.558-.125-.199-.187-.465-.187-.791 0-.355.078-.65.234-.883.155-.231.348-.425.582-.581.249-.154.52-.265.815-.326.294-.062.59-.093.885-.093.451 0 .863.04 1.235.119.388.076.73.207 1.026.394.294.188.528.441.698.772.187.324.296.739.328 1.232h3.542c0-.96-.189-1.77-.559-2.438-.358-.681-.846-1.238-1.468-1.673-.622-.434-1.336-.746-2.145-.927-.791-.201-1.623-.298-2.492-.298-.746 0-1.49.104-2.236.305-.746.201-1.415.512-2.004.934-.59.421-1.073.947-1.445 1.582-.358.622-.533 1.355-.533 2.211 0 .765.143 1.414.423 1.952.299.532.676.973 1.144 1.329.468.357.995.655 1.586.882.592.22 1.196.402 1.82.558.605.175 1.203.331 1.794.467.592.143 1.118.305 1.586.493.468.188.839.421 1.118.7.293.279.442.648.442 1.096 0 .421-.111.772-.325 1.05-.215.266-.488.473-.813.629-.325.156-.676.266-1.047.324-.371.045-.722.071-1.047.071-.481 0-.949-.058-1.398-.162-.449-.13-.845-.305-1.19-.538-.325-.246-.592-.564-.793-.953-.202-.389-.299-.856-.299-1.414h-3.543l-.025-.046zm14.625 5.505h3.657v-7.159h6.735v7.159h3.657v-16.594h-3.657v6.369h-6.735v-6.367h-3.656v16.593-.001zm15.719 0h3.658v-16.594h-3.658v16.594zm5.329 0h3.425l.046-11.109 6.922 11.109h3.658v-16.594h-3.433l-.046 11.136-6.937-11.136h-3.641v16.593h.005z" fill="url(#a)"/><g><g><path d="M46.714 39.91l-6.508-28.059c-.536-2.276-2.806-3.696-5.092-3.171l-4.737 1.089c.546.084 1.086.186 1.619.305l2.652-.61c2.282-.525 4.557.895 5.09 3.171l2.399 10.365c-.969 1.966-2.919 5.273-5.857 7.269.702.569 1.307 1.167 1.807 1.796 1.56 1.985 2.34 4.387 2.347 7.204 0 2.743-.754 5.06-2.249 6.953l5.363-1.235c2.295-.525 3.719-2.8 3.185-5.077h-.02zm-34.579 8.068l3.365-7.501c2.825 2.237 6.015 3.354 9.568 3.354 3.686 0 5.516-1.31 5.524-3.923 0-1.537-.558-2.795-1.662-3.774-1.11-.986-3.266-2.14-6.474-3.476-1.907-.791-3.544-1.673-4.931-2.633-3.829 1.057-7.106 3.67-9.229 6.199l-3.596-15.523c-.523-2.276.894-4.552 3.185-5.073l6.172-1.422c.242-.302.507-.591.792-.866l-7.86 1.808c-2.29.528-3.711 2.799-3.185 5.077l6.508 28.06c.528 2.275 2.804 3.698 5.09 3.175l3.225-.743-.252-.061c-1.612-.428-3.689-1.316-6.239-2.678v-.001z" id="Shape" fill="#E43A2C"/><path d="M11.991 20.527c0-2.509.689-4.614 2.066-6.32l-6.173 1.422c-2.886.656-3.738 2.659-3.184 5.073l3.597 15.534c2.123-2.529 5.399-5.139 9.229-6.199-3.68-2.559-5.533-5.723-5.533-9.51h-.001zm23.398-.94c-2.062-1.76-4.942-2.642-8.622-2.642-3.3 0-4.954 1.309-4.954 3.923 0 1.031.549 1.958 1.629 2.791 1.084.823 3.399 1.945 6.95 3.352 2.427.947 4.378 2.03 5.877 3.255 2.94-1.997 4.895-5.304 5.861-7.269l-2.399-10.368c-.496-2.135-2.209-3.832-5.086-3.171l-2.648.61c2.108.469 4.148 1.196 6.117 2.194l-2.726 7.325z" id="Shape" fill="#E85C32"/></g><g><path d="M48.754 21.848c0 14.353-11.665 25.989-26.056 25.989-14.39 0-26.055-11.635-26.055-25.989 0-14.356 11.663-25.989 26.05-25.989s26.056 11.633 26.056 25.989h.005z" id="Shape" fill="url(#b)" opacity=".65"/><path d="M48.754 21.848c0 14.353-11.665 25.989-26.056 25.989-14.39 0-26.055-11.635-26.055-25.989 0-14.356 11.663-25.989 26.05-25.989s26.056 11.633 26.056 25.989h.005z" id="Shape" fill="url(#c)" opacity=".3"/></g><g fill="#fff"><path d="M14.057 14.207l17.941-4.133c-.535-.123-1.074-.22-1.619-.305l-15.531 3.566c-.284.272-.549.564-.791.862v.009zm24.017 17.859c-.497-.63-1.105-1.228-1.804-1.796-2.522 1.712-5.77 2.458-9.745.551-3.141-1.502-6.217-1.552-9.001-.785 1.387.963 3.023 1.844 4.931 2.633 3.208 1.333 5.363 2.489 6.474 3.471 1.105.979 1.662 2.231 1.662 3.767-.008 2.613-1.838 3.916-5.524 3.916-3.552 0-6.743-1.122-9.568-3.359l-3.365 7.509c2.55 1.362 4.627 2.25 6.239 2.681l.252.061 19.539-4.496c1.495-1.893 2.249-4.21 2.249-6.954-.007-2.816-.787-5.218-2.347-7.203l.007.003zM11.991 20.527c0 3.785 1.851 6.951 5.534 9.51 2.784-.767 5.859-.718 9 .785 3.976 1.906 7.223 1.161 9.745-.551-1.499-1.226-3.45-2.312-5.877-3.259-3.55-1.404-5.865-2.524-6.95-3.352-1.079-.833-1.63-1.76-1.63-2.791 0-2.613 1.655-3.923 4.954-3.923 3.68 0 6.56.882 8.622 2.644l2.724-7.319c-1.97-.999-4.011-1.725-6.117-2.194l-17.943 4.137c-1.378 1.705-2.067 3.813-2.067 6.322l.006-.007z" id="Shape"/></g></g><path d="M56.737 36.771l3.298 8.546 3.284-8.546h1.335v9.747h-.908v-8.423h-.026l-3.259 8.423h-.854l-3.272-8.423h-.026v8.423h-.908v-9.747h1.335zm16.437 0l3.738 9.747h-.975l-1.161-3.031h-4.339l-1.148 3.035h-.962l3.833-9.746h1.014v-.005zm1.295 5.925l-1.842-4.997-1.909 4.997h3.758-.006zm13.62 3.822l-.12-1.775h-.026c-.161.346-.36.644-.595.895-.236.25-.497.454-.781.614-.286.16-.59.275-.915.348-.325.073-.661.109-1.008.109-.748 0-1.404-.139-1.97-.416-.566-.278-1.034-.648-1.408-1.113-.374-.464-.654-1.001-.841-1.611-.187-.61-.281-1.251-.281-1.926 0-.672.098-1.315.286-1.925.189-.61.468-1.149.845-1.618.377-.469.845-.843 1.411-1.12.566-.277 1.222-.416 1.97-.416.501 0 .969.068 1.417.205.449.136.845.34 1.19.614.345.272.644.61.884 1.005.241.402.41.869.494 1.407h-.91c-.026-.285-.117-.571-.273-.856-.156-.292-.364-.551-.624-.785-.267-.24-.579-.434-.943-.584-.364-.149-.774-.227-1.229-.227-.631 0-1.177.123-1.625.37-.455.246-.826.571-1.112.973-.286.402-.501.862-.644 1.368-.137.506-.208 1.031-.208 1.569 0 .525.072 1.044.208 1.563.137.512.351.973.644 1.375.293.402.663.726 1.118.973.455.246.995.363 1.632.363.527 0 .995-.091 1.411-.266.416-.182.761-.428 1.047-.746.286-.318.501-.7.644-1.135.143-.441.208-.914.202-1.433h-3.244v-.778h4.044v4.954h-.657l-.032.023zm9.026-9.747l3.738 9.747h-.975l-1.161-3.031h-4.339l-1.148 3.031h-.962l3.829-9.747h1.019zm1.295 5.925l-1.842-4.997-1.909 4.997h3.752zm12.524-5.925v.818l-6.275 8.138h6.41v.791h-7.424v-.819l6.275-8.136h-5.849v-.791h6.863v-.001zm5.061 0v9.747h-.908v-9.747h.908zm5.807 0l5.555 8.245h.026v-8.247h.909v9.747h-1.014l-5.555-8.246h-.026v8.246h-.908v-9.746h1.014l-.001.001zm17.8 0v.791h-5.675v3.523h5.315v.791h-5.315v3.852h5.746v.791h-6.651v-9.748h6.582-.003z" fill="#999"/></g></svg>