<?xml version="1.0" encoding="UTF-8"?>
<svg width="220px" height="173px" viewBox="0 0 220 173" version="1.1" xmlns="http://www.w3.org/2000/svg" xmlns:xlink="http://www.w3.org/1999/xlink">
    <!-- Generator: Sketch 43.2 (39069) - http://www.bohemiancoding.com/sketch -->
    <title>Group 2</title>
    <desc>Created with Sketch.</desc>
    <defs>
        <rect id="path-1" x="0" y="0" width="104.523077" height="131.378049"></rect>
        <filter x="-11.0%" y="-10.3%" width="122.0%" height="117.5%" filterUnits="objectBoundingBox" id="filter-2">
            <feOffset dx="0" dy="-2" in="SourceAlpha" result="shadowOffsetOuter1"></feOffset>
            <feGaussianBlur stdDeviation="3.5" in="shadowOffsetOuter1" result="shadowBlurOuter1"></feGaussianBlur>
            <feComposite in="shadowBlurOuter1" in2="SourceAlpha" operator="out" result="shadowBlurOuter1"></feComposite>
            <feColorMatrix values="0 0 0 0 0.0431372549   0 0 0 0 0.0666666667   0 0 0 0 0.160784314  0 0 0 0.1 0" type="matrix" in="shadowBlurOuter1"></feColorMatrix>
        </filter>
        <rect id="path-3" x="53.4769231" y="50.2804878" width="104.523077" height="81.9085366"></rect>
        <filter x="-23.0%" y="-24.4%" width="134.4%" height="144.0%" filterUnits="objectBoundingBox" id="filter-4">
            <feOffset dx="-6" dy="-2" in="SourceAlpha" result="shadowOffsetOuter1"></feOffset>
            <feGaussianBlur stdDeviation="5" in="shadowOffsetOuter1" result="shadowBlurOuter1"></feGaussianBlur>
            <feColorMatrix values="0 0 0 0 0.0431372549   0 0 0 0 0.0666666667   0 0 0 0 0.160784314  0 0 0 0.1 0" type="matrix" in="shadowBlurOuter1"></feColorMatrix>
        </filter>
    </defs>
    <g id="Page-1" stroke="none" stroke-width="1" fill="none" fill-rule="evenodd">
        <g id="Group-2">
            <rect id="Rectangle-50" fill="#F9F9F9" x="0" y="0" width="220" height="165"></rect>
            <g id="Group-8" transform="translate(34.000000, 32.000000)">
                <g id="Rectangle">
                    <use fill="black" fill-opacity="1" filter="url(#filter-2)" xlink:href="#path-1"></use>
                    <use fill="#D8D8D8" fill-rule="evenodd" xlink:href="#path-1"></use>
                    <rect stroke="#979797" stroke-width="1" x="0.5" y="0.5" width="103.523077" height="130.378049"></rect>
                </g>
                <rect id="Rectangle-49" fill="#FFFFFF" x="0" y="0" width="105.333333" height="133"></rect>
                <g id="Rectangle">
                    <use fill="black" fill-opacity="1" filter="url(#filter-4)" xlink:href="#path-3"></use>
                    <use fill="#D8D8D8" fill-rule="evenodd" xlink:href="#path-3"></use>
                </g>
                <g id="Group" transform="translate(8.102564, 12.164634)" fill="#0B1129">
                    <path d="M2.24647976,5.08724174 L2.84770294,4.49093066 L1.39769408,3.04575322 L2.84770294,1.60057579 L2.24647976,1.00426471 L0.202320928,3.04575322 L2.24647976,5.08724174 Z M3.62575647,5.03111834 L3.62575647,0.0501669821 L4.69381178,0.0501669821 L4.69381178,1.73386885 C4.89893498,1.56549866 5.18186354,1.46728272 5.47186531,1.46728272 C6.51870097,1.46728272 7.18358308,2.31614908 7.18358308,3.27726223 C7.18358308,4.23837538 6.51870097,5.08724174 5.47186531,5.08724174 C5.18186354,5.08724174 4.89893498,4.99604122 4.69381178,4.82767103 L4.69381178,5.03111834 L3.62575647,5.03111834 Z M5.29503496,2.4354113 C5.03332604,2.4354113 4.83527605,2.54064266 4.69381178,2.73005912 L4.69381178,3.83148076 C4.83527605,4.02089722 5.03332604,4.11911317 5.29503496,4.11911317 C5.80430636,4.11911317 6.10845456,3.74028024 6.10845456,3.27726223 C6.10845456,2.81424422 5.80430636,2.4354113 5.29503496,2.4354113 Z M9.46115797,4.09806689 C9.89969723,4.09806689 10.2250651,3.76132652 10.2250651,3.27726223 C10.2250651,2.79319794 9.89969723,2.45645757 9.46115797,2.45645757 C9.0226187,2.45645757 8.69725086,2.79319794 8.69725086,3.27726223 C8.69725086,3.76132652 9.0226187,4.09806689 9.46115797,4.09806689 Z M9.46115797,5.08724174 C8.44261516,5.08724174 7.62212234,4.2734525 7.62212234,3.27726223 C7.62212234,2.28107196 8.44261516,1.46728272 9.46115797,1.46728272 C10.4797008,1.46728272 11.3001936,2.28107196 11.3001936,3.27726223 C11.3001936,4.2734525 10.4797008,5.08724174 9.46115797,5.08724174 Z M14.2285042,5.03111834 L14.2285042,4.82767103 C14.023381,4.99604122 13.7404524,5.08724174 13.4504506,5.08724174 C12.403615,5.08724174 11.7387329,4.23837538 11.7387329,3.27726223 C11.7387329,2.31614908 12.403615,1.46728272 13.4504506,1.46728272 C13.7404524,1.46728272 14.023381,1.56549866 14.2285042,1.73386885 L14.2285042,0.0501669821 L15.2965595,0.0501669821 L15.2965595,5.03111834 L14.2285042,5.03111834 Z M13.627281,4.11911317 C13.8889899,4.11911317 14.0799667,4.02089722 14.2285042,3.83148076 L14.2285042,2.73005912 C14.0799667,2.54064266 13.8889899,2.4354113 13.627281,2.4354113 C13.1180096,2.4354113 12.8138614,2.81424422 12.8138614,3.27726223 C12.8138614,3.74028024 13.1180096,4.11911317 13.627281,4.11911317 Z M16.4990058,6.32195644 L17.6307201,6.32195644 L19.41317,1.52340612 L18.2814557,1.52340612 L17.5458415,3.74028024 L16.8102272,1.52340612 L15.678513,1.52340612 L16.9799844,5.03111834 L16.4990058,6.32195644 Z M20.339761,5.08724174 L22.3839198,3.04575322 L20.339761,1.00426471 L19.7385378,1.60057579 L21.1885467,3.04575322 L19.7385378,4.49093066 L20.339761,5.08724174 Z M6.91480095,13.9442151 L7.51602414,13.347904 L6.06601528,11.9027266 L7.51602414,10.4575492 L6.91480095,9.86123808 L4.87064212,11.9027266 L6.91480095,13.9442151 Z M10.5928722,13.8880917 L10.5928722,13.6846444 C10.387749,13.8530146 10.1048204,13.9442151 9.81481866,13.9442151 C8.767983,13.9442151 8.10310089,13.0953488 8.10310089,12.1342356 C8.10310089,11.1731225 8.767983,10.3242561 9.81481866,10.3242561 C10.1048204,10.3242561 10.387749,10.422472 10.5928722,10.5908422 L10.5928722,8.90714035 L11.6609275,8.90714035 L11.6609275,13.8880917 L10.5928722,13.8880917 Z M9.99164901,12.9760865 C10.2533579,12.9760865 10.4443347,12.8778706 10.5928722,12.6884541 L10.5928722,11.5870325 C10.4443347,11.397616 10.2533579,11.2923847 9.99164901,11.2923847 C9.48237761,11.2923847 9.17822941,11.6712176 9.17822941,12.1342356 C9.17822941,12.5972536 9.48237761,12.9760865 9.99164901,12.9760865 Z M12.538006,9.88228435 L13.528256,9.88228435 C13.6202078,9.77705299 13.6697203,9.6367445 13.6697203,9.48240516 C13.6697203,9.13163394 13.3867917,8.85101696 13.033131,8.85101696 C12.6794703,8.85101696 12.3965417,9.13163394 12.3965417,9.48240516 C12.3965417,9.6367445 12.4460542,9.77705299 12.538006,9.88228435 Z M12.4955667,13.8880917 L13.563622,13.8880917 L13.563622,10.3803795 L12.4955667,10.3803795 L12.4955667,13.8880917 Z M15.9402219,13.9442151 L17.9985272,10.3803795 L16.767788,10.3803795 L15.9402219,11.909742 L15.1126559,10.3803795 L13.8819167,10.3803795 L15.9402219,13.9442151 Z M19.9082949,9.88228435 L20.8985449,9.88228435 C20.9904967,9.77705299 21.0400092,9.6367445 21.0400092,9.48240516 C21.0400092,9.13163394 20.7570806,8.85101696 20.4034199,8.85101696 C20.0497592,8.85101696 19.7668307,9.13163394 19.7668307,9.48240516 C19.7668307,9.6367445 19.8163432,9.77705299 19.9082949,9.88228435 Z M19.8658557,13.8880917 L20.933911,13.8880917 L20.933911,10.3803795 L19.8658557,10.3803795 L19.8658557,13.8880917 Z M24.074418,13.8880917 L24.074418,13.6846444 C23.8692947,13.8530146 23.5863662,13.9442151 23.2963644,13.9442151 C22.2495288,13.9442151 21.5846466,13.0953488 21.5846466,12.1342356 C21.5846466,11.1731225 22.2495288,10.3242561 23.2963644,10.3242561 C23.5863662,10.3242561 23.8692947,10.422472 24.074418,10.5908422 L24.074418,8.90714035 L25.1424733,8.90714035 L25.1424733,13.8880917 L24.074418,13.8880917 Z M23.4731948,12.9760865 C23.7349037,12.9760865 23.9258805,12.8778706 24.074418,12.6884541 L24.074418,11.5870325 C23.9258805,11.397616 23.7349037,11.2923847 23.4731948,11.2923847 C22.9639234,11.2923847 22.6597752,11.6712176 22.6597752,12.1342356 C22.6597752,12.5972536 22.9639234,12.9760865 23.4731948,12.9760865 Z M26.1044304,13.0322099 L29.1883516,13.0322099 L29.1883516,12.2324515 L26.1044304,12.2324515 L26.1044304,13.0322099 Z M26.1044304,11.5870325 L29.1883516,11.5870325 L29.1883516,10.7872741 L26.1044304,10.7872741 L26.1044304,11.5870325 Z M31.2749497,8.90714035 L30.6595801,8.90714035 L30.2068944,9.98751572 L30.2068944,11.2081996 L31.4376337,11.2081996 L31.4376337,9.98751572 L30.9637283,9.98751572 L31.2749497,8.90714035 Z M32.8593497,8.90714035 L32.24398,8.90714035 L31.7912944,9.98751572 L31.7912944,11.2081996 L33.0220336,11.2081996 L33.0220336,9.98751572 L32.5481282,9.98751572 L32.8593497,8.90714035 Z M33.9132585,13.8880917 L34.9813138,13.8880917 L34.9813138,8.90714035 L33.9132585,8.90714035 L33.9132585,13.8880917 Z M37.4144994,13.9442151 C36.4808352,13.9442151 35.6108299,13.214611 35.6108299,12.1342356 C35.6108299,11.1029682 36.3464441,10.3242561 37.4357191,10.3242561 C38.3340172,10.3242561 39.1403636,10.9065363 39.1403636,12.0149734 C39.1403636,12.1131893 39.1332904,12.2184207 39.119144,12.3236521 L36.6364459,12.3236521 C36.6859584,12.7936855 37.0891316,12.9760865 37.4074262,12.9760865 C37.7823066,12.9760865 38.0227958,12.7936855 38.1642601,12.5341148 L39.0130458,13.1023642 C38.6876779,13.6074747 38.1147476,13.9442151 37.4144994,13.9442151 Z M37.3720601,11.1731225 C37.1174244,11.1731225 36.7425441,11.2853692 36.6435191,11.7062947 L38.0864548,11.7062947 C38.029869,11.3344772 37.7186476,11.1731225 37.3720601,11.1731225 Z M39.4940243,11.3064155 L39.9537832,11.3064155 L39.9537832,12.8077164 C39.9537832,13.4741817 40.3711029,13.8880917 41.035985,13.8880917 L42.0120885,13.8880917 L42.0120885,12.9199631 L41.4320849,12.9199631 C41.1420832,12.9199631 41.0218385,12.8007009 41.0218385,12.5060531 L41.0218385,11.3064155 L41.9059903,11.3064155 L42.1394063,10.3803795 L41.0218385,10.3803795 L41.0218385,9.32806582 L39.9537832,9.85422266 L39.9537832,10.3803795 L39.2606083,10.3803795 L39.4940243,11.3064155 Z M42.8962402,11.2081996 L43.5116098,11.2081996 L43.9642955,10.1278242 L43.9642955,8.90714035 L42.7335563,8.90714035 L42.7335563,10.1278242 L43.2074616,10.1278242 L42.8962402,11.2081996 Z M45.9023561,13.9442151 C46.623824,13.9442151 47.1826079,13.5443359 47.1826079,12.8287626 C47.1826079,12.3096212 46.9067525,11.9448191 46.2347972,11.6922639 L46.0862597,11.6361405 C45.732599,11.5028474 45.6194276,11.4607549 45.6194276,11.3204464 C45.6194276,11.2081996 45.732599,11.1590916 45.8740633,11.1590916 C46.0933329,11.1590916 46.2489436,11.2853692 46.3833347,11.4747857 L46.9916311,10.8784746 C46.722849,10.4926263 46.326749,10.3242561 45.8740633,10.3242561 C45.1950348,10.3242561 44.6574705,10.7662278 44.6574705,11.4116469 C44.6574705,11.909742 44.9757651,12.3026058 45.5911347,12.5411302 L45.7750383,12.6112845 C46.1216258,12.7445775 46.2206508,12.7866701 46.2206508,12.9199631 C46.2206508,13.0462408 46.0933329,13.0813179 45.9447954,13.0813179 C45.6265008,13.0813179 45.435524,12.9059323 45.2940598,12.653377 L44.4806401,13.2005801 C44.7847883,13.726737 45.2869865,13.9442151 45.9023561,13.9442151 Z M50.393847,13.9442151 C51.1153148,13.9442151 51.6740987,13.5443359 51.6740987,12.8287626 C51.6740987,12.3096212 51.3982434,11.9448191 50.7262881,11.6922639 L50.5777506,11.6361405 C50.2240899,11.5028474 50.1109184,11.4607549 50.1109184,11.3204464 C50.1109184,11.2081996 50.2240899,11.1590916 50.3655541,11.1590916 C50.5848238,11.1590916 50.7404345,11.2853692 50.8748255,11.4747857 L51.4831219,10.8784746 C51.2143398,10.4926263 50.8182398,10.3242561 50.3655541,10.3242561 C49.6865256,10.3242561 49.1489613,10.7662278 49.1489613,11.4116469 C49.1489613,11.909742 49.467256,12.3026058 50.0826256,12.5411302 L50.2665291,12.6112845 C50.6131166,12.7445775 50.7121416,12.7866701 50.7121416,12.9199631 C50.7121416,13.0462408 50.5848238,13.0813179 50.4362863,13.0813179 C50.1179917,13.0813179 49.9270149,12.9059323 49.7855506,12.653377 L48.972131,13.2005801 C49.2762792,13.726737 49.7784774,13.9442151 50.393847,13.9442151 Z M52.013613,11.3064155 L52.4733719,11.3064155 L52.4733719,12.8077164 C52.4733719,13.4741817 52.8906915,13.8880917 53.5555736,13.8880917 L54.5316771,13.8880917 L54.5316771,12.9199631 L53.9516736,12.9199631 C53.6616718,12.9199631 53.5414272,12.8007009 53.5414272,12.5060531 L53.5414272,11.3064155 L54.4255789,11.3064155 L54.658995,10.3803795 L53.5414272,10.3803795 L53.5414272,9.32806582 L52.4733719,9.85422266 L52.4733719,10.3803795 L51.7801969,10.3803795 L52.013613,11.3064155 Z M57.4953538,13.8880917 L57.4953538,13.6846444 C57.2902306,13.8530146 57.007302,13.9442151 56.7173003,13.9442151 C55.6704646,13.9442151 55.0055825,13.0953488 55.0055825,12.1342356 C55.0055825,11.1731225 55.6704646,10.3242561 56.7173003,10.3242561 C57.007302,10.3242561 57.2902306,10.422472 57.4953538,10.5908422 L57.4953538,10.3803795 L58.5634091,10.3803795 L58.5634091,13.8880917 L57.4953538,13.8880917 Z M56.8941306,12.9760865 C57.1558395,12.9760865 57.3468163,12.8778706 57.4953538,12.6884541 L57.4953538,11.5870325 C57.3468163,11.397616 57.1558395,11.2923847 56.8941306,11.2923847 C56.3848592,11.2923847 56.080711,11.6712176 56.080711,12.1342356 C56.080711,12.5972536 56.3848592,12.9760865 56.8941306,12.9760865 Z M59.3980483,13.8880917 L60.4661036,13.8880917 L60.4661036,11.5940479 C60.6358608,11.446724 60.8904965,11.3625389 61.1097661,11.3625389 C61.2936697,11.3625389 61.4917197,11.397616 61.6544036,11.4818011 L61.6544036,10.3803795 C61.5200125,10.3382869 61.3856214,10.3242561 61.27245,10.3242561 C60.9258625,10.3242561 60.6641536,10.4505337 60.4661036,10.6890582 L60.4661036,10.3803795 L59.3980483,10.3803795 L59.3980483,13.8880917 Z M61.9019661,11.3064155 L62.361725,11.3064155 L62.361725,12.8077164 C62.361725,13.4741817 62.7790446,13.8880917 63.4439267,13.8880917 L64.4200302,13.8880917 L64.4200302,12.9199631 L63.8400267,12.9199631 C63.5500249,12.9199631 63.4297803,12.8007009 63.4297803,12.5060531 L63.4297803,11.3064155 L64.313932,11.3064155 L64.5473481,10.3803795 L63.4297803,10.3803795 L63.4297803,9.32806582 L62.361725,9.85422266 L62.361725,10.3803795 L61.66855,10.3803795 L61.9019661,11.3064155 Z M66.3722373,11.3064155 L66.8319962,11.3064155 L66.8319962,12.8077164 C66.8319962,13.4741817 67.2493158,13.8880917 67.9141979,13.8880917 L68.8903014,13.8880917 L68.8903014,12.9199631 L68.3102979,12.9199631 C68.0202961,12.9199631 67.9000515,12.8007009 67.9000515,12.5060531 L67.9000515,11.3064155 L68.7842032,11.3064155 L69.0176193,10.3803795 L67.9000515,10.3803795 L67.9000515,9.32806582 L66.8319962,9.85422266 L66.8319962,10.3803795 L66.1388212,10.3803795 L66.3722373,11.3064155 Z M69.5551835,13.8880917 L70.6232388,13.8880917 L70.6232388,11.5940479 C70.8000692,11.397616 71.0547049,11.2923847 71.2598281,11.2923847 C71.7266602,11.2923847 71.9105638,11.6501713 71.9105638,12.1202048 L71.9105638,13.8880917 L72.9786191,13.8880917 L72.9786191,11.9307883 C72.9786191,10.983706 72.4339816,10.3242561 71.4366584,10.3242561 C71.125437,10.3242561 70.8354353,10.422472 70.6232388,10.5978576 L70.6232388,8.90714035 L69.5551835,8.90714035 L69.5551835,13.8880917 Z M73.8203315,9.88228435 L74.8105815,9.88228435 C74.9025333,9.77705299 74.9520458,9.6367445 74.9520458,9.48240516 C74.9520458,9.13163394 74.6691172,8.85101696 74.3154565,8.85101696 C73.9617958,8.85101696 73.6788673,9.13163394 73.6788673,9.48240516 C73.6788673,9.6367445 73.7283798,9.77705299 73.8203315,9.88228435 Z M73.7778923,13.8880917 L74.8459476,13.8880917 L74.8459476,10.3803795 L73.7778923,10.3803795 L73.7778923,13.8880917 Z M76.7344957,13.9442151 C77.4559635,13.9442151 78.0147474,13.5443359 78.0147474,12.8287626 C78.0147474,12.3096212 77.7388921,11.9448191 77.0669367,11.6922639 L76.9183992,11.6361405 C76.5647385,11.5028474 76.4515671,11.4607549 76.4515671,11.3204464 C76.4515671,11.2081996 76.5647385,11.1590916 76.7062028,11.1590916 C76.9254725,11.1590916 77.0810832,11.2853692 77.2154742,11.4747857 L77.8237706,10.8784746 C77.5549885,10.4926263 77.1588885,10.3242561 76.7062028,10.3242561 C76.0271743,10.3242561 75.48961,10.7662278 75.48961,11.4116469 C75.48961,11.909742 75.8079047,12.3026058 76.4232743,12.5411302 L76.6071778,12.6112845 C76.9537653,12.7445775 77.0527903,12.7866701 77.0527903,12.9199631 C77.0527903,13.0462408 76.9254725,13.0813179 76.776935,13.0813179 C76.4586403,13.0813179 76.2676636,12.9059323 76.1261993,12.653377 L75.3127797,13.2005801 C75.6169279,13.726737 76.1191261,13.9442151 76.7344957,13.9442151 Z M78.8423134,11.2081996 L79.457683,11.2081996 L79.9103687,10.1278242 L79.9103687,8.90714035 L78.6796295,8.90714035 L78.6796295,10.1278242 L79.1535348,10.1278242 L78.8423134,11.2081996 Z M80.4267134,11.2081996 L81.042083,11.2081996 L81.4947687,10.1278242 L81.4947687,8.90714035 L80.2640294,8.90714035 L80.2640294,10.1278242 L80.7379348,10.1278242 L80.4267134,11.2081996 Z M82.9306311,13.9442151 L84.9747899,11.9027266 L82.9306311,9.86123808 L82.3294079,10.4575492 L83.7794168,11.9027266 L82.3294079,13.347904 L82.9306311,13.9442151 Z M11.5831221,22.8011885 L12.1843453,22.2048774 L10.7343365,20.7597 L12.1843453,19.3145225 L11.5831221,18.7182115 L9.53896332,20.7597 L11.5831221,22.8011885 Z M15.2611934,22.7450651 L15.2611934,22.5416178 C15.0560702,22.709988 14.7731416,22.8011885 14.4831399,22.8011885 C13.4363042,22.8011885 12.7714221,21.9523221 12.7714221,20.991209 C12.7714221,20.0300958 13.4363042,19.1812295 14.4831399,19.1812295 C14.7731416,19.1812295 15.0560702,19.2794454 15.2611934,19.4478156 L15.2611934,19.2373529 L16.3292487,19.2373529 L16.3292487,22.7450651 L15.2611934,22.7450651 Z M14.6599702,21.8330599 C14.9216791,21.8330599 15.1126559,21.734844 15.2611934,21.5454275 L15.2611934,20.4440059 C15.1126559,20.2545894 14.9216791,20.149358 14.6599702,20.149358 C14.1506988,20.149358 13.8465506,20.528191 13.8465506,20.991209 C13.8465506,21.454227 14.1506988,21.8330599 14.6599702,21.8330599 Z M18.719995,22.7450651 L19.7880503,22.7450651 L19.7880503,20.4510213 C19.9648807,20.2545894 20.2195164,20.149358 20.4246396,20.149358 C20.8914717,20.149358 21.0753752,20.5071447 21.0753752,20.9771781 L21.0753752,22.7450651 L22.1434305,22.7450651 L22.1434305,20.7877617 C22.1434305,19.8406794 21.5987931,19.1812295 20.6014699,19.1812295 C20.2902485,19.1812295 20.0002467,19.2794454 19.7880503,19.454831 L19.7880503,17.7641137 L18.719995,17.7641137 L18.719995,22.7450651 Z M22.9427037,22.7450651 L24.010759,22.7450651 L24.010759,20.4510213 C24.1805162,20.3036974 24.4351519,20.2195123 24.6544215,20.2195123 C24.8383251,20.2195123 25.036375,20.2545894 25.199059,20.3387745 L25.199059,19.2373529 C25.0646679,19.1952603 24.9302768,19.1812295 24.8171054,19.1812295 C24.4705179,19.1812295 24.208809,19.3075071 24.010759,19.5460315 L24.010759,19.2373529 L22.9427037,19.2373529 L22.9427037,22.7450651 Z M27.3139499,22.8011885 C26.3802857,22.8011885 25.5102804,22.0715843 25.5102804,20.991209 C25.5102804,19.9599416 26.2458946,19.1812295 27.3351696,19.1812295 C28.2334677,19.1812295 29.0398141,19.7635097 29.0398141,20.8719468 C29.0398141,20.9701627 29.0327409,21.0753941 29.0185945,21.1806254 L26.5358964,21.1806254 C26.5854089,21.6506589 26.9885821,21.8330599 27.3068767,21.8330599 C27.6817571,21.8330599 27.9222463,21.6506589 28.0637106,21.3910882 L28.9124963,21.9593376 C28.5871284,22.4644481 28.0141981,22.8011885 27.3139499,22.8011885 Z M27.2715107,20.0300958 C27.0168749,20.0300958 26.6419946,20.1423426 26.5429696,20.5632681 L27.9859053,20.5632681 C27.9293195,20.1914506 27.6180981,20.0300958 27.2715107,20.0300958 Z M29.3581088,20.1633889 L29.8178677,20.1633889 L29.8178677,22.7450651 L30.885923,22.7450651 L30.885923,20.1633889 L31.7064158,20.1633889 L31.7064158,19.2373529 L30.9425087,19.2373529 C30.786898,19.2373529 30.6666533,19.1180906 30.6666533,18.9637513 C30.6666533,18.809412 30.7656783,18.6901498 31.0132408,18.6901498 L31.7064158,18.6901498 L31.7064158,17.7641137 L30.6100676,17.7641137 C30.0229909,17.7641137 29.6551837,18.1569775 29.6551837,18.6550726 C29.6551837,18.8795662 29.7329891,19.0830135 29.8744534,19.2373529 L29.3581088,19.2373529 L29.3581088,20.1633889 Z M32.3500783,21.8891833 L35.4339995,21.8891833 L35.4339995,21.0894249 L32.3500783,21.0894249 L32.3500783,21.8891833 Z M32.3500783,20.4440059 L35.4339995,20.4440059 L35.4339995,19.6442475 L32.3500783,19.6442475 L32.3500783,20.4440059 Z M37.5205976,17.7641137 L36.905228,17.7641137 L36.4525423,18.8444891 L36.4525423,20.0651729 L37.6832816,20.0651729 L37.6832816,18.8444891 L37.2093762,18.8444891 L37.5205976,17.7641137 Z M39.1049976,17.7641137 L38.4896279,17.7641137 L38.0369423,18.8444891 L38.0369423,20.0651729 L39.2676815,20.0651729 L39.2676815,18.8444891 L38.7937761,18.8444891 L39.1049976,17.7641137 Z M39.8901243,20.1633889 L40.3498832,20.1633889 L40.3498832,21.6646897 C40.3498832,22.331155 40.7672028,22.7450651 41.4320849,22.7450651 L42.4081885,22.7450651 L42.4081885,21.7769365 L41.8281849,21.7769365 C41.5381832,21.7769365 41.4179385,21.6576743 41.4179385,21.3630265 L41.4179385,20.1633889 L42.3020903,20.1633889 L42.5355063,19.2373529 L41.4179385,19.2373529 L41.4179385,18.1850392 L40.3498832,18.711196 L40.3498832,19.2373529 L39.6567082,19.2373529 L39.8901243,20.1633889 Z M43.0730706,22.7450651 L44.1411259,22.7450651 L44.1411259,20.4510213 C44.3179562,20.2545894 44.5725919,20.149358 44.7777151,20.149358 C45.2445473,20.149358 45.4284508,20.5071447 45.4284508,20.9771781 L45.4284508,22.7450651 L46.4965061,22.7450651 L46.4965061,20.7877617 C46.4965061,19.8406794 45.9518686,19.1812295 44.9545455,19.1812295 C44.6433241,19.1812295 44.3533223,19.2794454 44.1411259,19.454831 L44.1411259,19.2373529 L43.0730706,19.2373529 L43.0730706,22.7450651 Z M49.5945738,22.7450651 L49.5945738,22.5416178 C49.3894506,22.709988 49.1065221,22.8011885 48.8165203,22.8011885 C47.7696846,22.8011885 47.1048025,21.9523221 47.1048025,20.991209 C47.1048025,20.0300958 47.7696846,19.1812295 48.8165203,19.1812295 C49.1065221,19.1812295 49.3894506,19.2794454 49.5945738,19.4478156 L49.5945738,17.7641137 L50.6626291,17.7641137 L50.6626291,22.7450651 L49.5945738,22.7450651 Z M48.9933506,21.8330599 C49.2550596,21.8330599 49.4460363,21.734844 49.5945738,21.5454275 L49.5945738,20.4440059 C49.4460363,20.2545894 49.2550596,20.149358 48.9933506,20.149358 C48.4840792,20.149358 48.179931,20.528191 48.179931,20.991209 C48.179931,21.454227 48.4840792,21.8330599 48.9933506,21.8330599 Z M52.544104,22.8011885 C53.2655719,22.8011885 53.8243558,22.4013093 53.8243558,21.685736 C53.8243558,21.1665946 53.5485004,20.8017925 52.8765451,20.5492372 L52.7280076,20.4931138 C52.3743469,20.3598208 52.2611755,20.3177282 52.2611755,20.1774197 C52.2611755,20.0651729 52.3743469,20.016065 52.5158112,20.016065 C52.7350808,20.016065 52.8906915,20.1423426 53.0250826,20.3317591 L53.633379,19.735448 C53.3645968,19.3495997 52.9684969,19.1812295 52.5158112,19.1812295 C51.8367826,19.1812295 51.2992184,19.6232012 51.2992184,20.2686203 C51.2992184,20.7667154 51.617513,21.1595792 52.2328826,21.3981036 L52.4167862,21.4682578 C52.7633737,21.6015509 52.8623987,21.6436434 52.8623987,21.7769365 C52.8623987,21.9032142 52.7350808,21.9382913 52.5865433,21.9382913 C52.2682487,21.9382913 52.0772719,21.7629057 51.9358076,21.5103504 L51.122388,22.0575535 C51.4265362,22.5837103 51.9287344,22.8011885 52.544104,22.8011885 Z M54.6519218,20.0651729 L55.2672914,20.0651729 L55.7199771,18.9847976 L55.7199771,17.7641137 L54.4892379,17.7641137 L54.4892379,18.9847976 L54.9631432,18.9847976 L54.6519218,20.0651729 Z M56.2363217,20.0651729 L56.8516913,20.0651729 L57.304377,18.9847976 L57.304377,17.7641137 L56.0736378,17.7641137 L56.0736378,18.9847976 L56.5475431,18.9847976 L56.2363217,20.0651729 Z M58.7402394,22.8011885 L60.7843983,20.7597 L58.7402394,18.7182115 L58.1390163,19.3145225 L59.5890251,20.7597 L58.1390163,22.2048774 L58.7402394,22.8011885 Z M16.2514433,31.6581619 L16.8526665,31.0618508 L15.4026577,29.6166733 L16.8526665,28.1714959 L16.2514433,27.5751848 L14.2072845,29.6166733 L16.2514433,31.6581619 Z M18.6775557,31.6581619 C19.3990235,31.6581619 19.9578074,31.2582827 19.9578074,30.5427094 C19.9578074,30.023568 19.6819521,29.6587659 19.0099968,29.4062106 L18.8614593,29.3500872 C18.5077986,29.2167941 18.3946272,29.1747016 18.3946272,29.0343931 C18.3946272,28.9221463 18.5077986,28.8730383 18.6492629,28.8730383 C18.8685325,28.8730383 19.0241432,28.999316 19.1585343,29.1887324 L19.7668307,28.5924214 C19.4980485,28.206573 19.1019486,28.0382028 18.6492629,28.0382028 C17.9702343,28.0382028 17.4326701,28.4801746 17.4326701,29.1255936 C17.4326701,29.6236888 17.7509647,30.0165525 18.3663343,30.255077 L18.5502379,30.3252312 C18.8968254,30.4585243 18.9958503,30.5006168 18.9958503,30.6339099 C18.9958503,30.7601875 18.8685325,30.7952646 18.719995,30.7952646 C18.4017004,30.7952646 18.2107236,30.619879 18.0692593,30.3673238 L17.2558397,30.9145269 C17.5599879,31.4406837 18.0621861,31.6581619 18.6775557,31.6581619 Z M20.5661038,32.8928766 L20.5661038,28.0943262 L21.6341591,28.0943262 L21.6341591,28.304789 C21.8392823,28.1364188 22.1222109,28.0382028 22.4122127,28.0382028 C23.4590483,28.0382028 24.1239304,28.8870692 24.1239304,29.8481823 C24.1239304,30.8092955 23.4590483,31.6581619 22.4122127,31.6581619 C22.1222109,31.6581619 21.8392823,31.5669613 21.6341591,31.3985912 L21.6341591,32.8928766 L20.5661038,32.8928766 Z M22.2353823,29.0063314 C21.9736734,29.0063314 21.7756234,29.1115628 21.6341591,29.3009792 L21.6341591,30.4024009 C21.7756234,30.5918173 21.9736734,30.6900333 22.2353823,30.6900333 C22.7446537,30.6900333 23.0488019,30.3112004 23.0488019,29.8481823 C23.0488019,29.3851643 22.7446537,29.0063314 22.2353823,29.0063314 Z M27.0663874,31.6020385 L27.0663874,31.3985912 C26.8612642,31.5669613 26.5783357,31.6581619 26.2883339,31.6581619 C25.2414983,31.6581619 24.5766161,30.8092955 24.5766161,29.8481823 C24.5766161,28.8870692 25.2414983,28.0382028 26.2883339,28.0382028 C26.5783357,28.0382028 26.8612642,28.1364188 27.0663874,28.304789 L27.0663874,28.0943262 L28.1344427,28.0943262 L28.1344427,31.6020385 L27.0663874,31.6020385 Z M26.4651643,30.6900333 C26.7268732,30.6900333 26.91785,30.5918173 27.0663874,30.4024009 L27.0663874,29.3009792 C26.91785,29.1115628 26.7268732,29.0063314 26.4651643,29.0063314 C25.9558929,29.0063314 25.6517447,29.3851643 25.6517447,29.8481823 C25.6517447,30.3112004 25.9558929,30.6900333 26.4651643,30.6900333 Z M28.969082,31.6020385 L30.0371373,31.6020385 L30.0371373,29.3079947 C30.2139676,29.1115628 30.4686033,29.0063314 30.6737266,29.0063314 C31.1405587,29.0063314 31.3244622,29.3641181 31.3244622,29.8341515 L31.3244622,31.6020385 L32.3925175,31.6020385 L32.3925175,29.644735 C32.3925175,28.6976527 31.8478801,28.0382028 30.8505569,28.0382028 C30.5393355,28.0382028 30.2493337,28.1364188 30.0371373,28.3118044 L30.0371373,28.0943262 L28.969082,28.0943262 L28.969082,31.6020385 Z M33.7364282,31.6581619 L35.780587,29.6166733 L33.7364282,27.5751848 L33.135205,28.1714959 L34.5852139,29.6166733 L33.135205,31.0618508 L33.7364282,31.6581619 Z M35.9574174,31.6020385 L38.4330422,26.5649637 L40.9086671,31.6020385 L39.7203672,31.6020385 L39.3596333,30.8303418 L37.5064512,30.8303418 L37.1457173,31.6020385 L35.9574174,31.6020385 Z M37.9591369,29.9183366 L38.9069476,29.9183366 L38.4330422,28.8800538 L37.9591369,29.9183366 Z M43.1296563,31.6581619 L43.7308795,31.0618508 L42.2808706,29.6166733 L43.7308795,28.1714959 L43.1296563,27.5751848 L41.0854975,29.6166733 L43.1296563,31.6581619 Z M44.0916134,31.6020385 L45.0535705,31.6020385 L47.3948043,26.6210871 L46.4328472,26.6210871 L44.0916134,31.6020385 Z M48.8589596,31.6581619 C49.5804274,31.6581619 50.1392113,31.2582827 50.1392113,30.5427094 C50.1392113,30.023568 49.863356,29.6587659 49.1914006,29.4062106 L49.0428631,29.3500872 C48.6892024,29.2167941 48.576031,29.1747016 48.576031,29.0343931 C48.576031,28.9221463 48.6892024,28.8730383 48.8306667,28.8730383 C49.0499364,28.8730383 49.2055471,28.999316 49.3399381,29.1887324 L49.9482345,28.5924214 C49.6794524,28.206573 49.2833524,28.0382028 48.8306667,28.0382028 C48.1516382,28.0382028 47.6140739,28.4801746 47.6140739,29.1255936 C47.6140739,29.6236888 47.9323685,30.0165525 48.5477382,30.255077 L48.7316417,30.3252312 C49.0782292,30.4585243 49.1772542,30.5006168 49.1772542,30.6339099 C49.1772542,30.7601875 49.0499364,30.7952646 48.9013989,30.7952646 C48.5831042,30.7952646 48.3921275,30.619879 48.2506632,30.3673238 L47.4372436,30.9145269 C47.7413918,31.4406837 48.24359,31.6581619 48.8589596,31.6581619 Z M50.7475077,32.8928766 L50.7475077,28.0943262 L51.815563,28.0943262 L51.815563,28.304789 C52.0206862,28.1364188 52.3036148,28.0382028 52.5936165,28.0382028 C53.6404522,28.0382028 54.3053343,28.8870692 54.3053343,29.8481823 C54.3053343,30.8092955 53.6404522,31.6581619 52.5936165,31.6581619 C52.3036148,31.6581619 52.0206862,31.5669613 51.815563,31.3985912 L51.815563,32.8928766 L50.7475077,32.8928766 Z M52.4167862,29.0063314 C52.1550773,29.0063314 51.9570273,29.1115628 51.815563,29.3009792 L51.815563,30.4024009 C51.9570273,30.5918173 52.1550773,30.6900333 52.4167862,30.6900333 C52.9260576,30.6900333 53.2302058,30.3112004 53.2302058,29.8481823 C53.2302058,29.3851643 52.9260576,29.0063314 52.4167862,29.0063314 Z M57.2477913,31.6020385 L57.2477913,31.3985912 C57.0426681,31.5669613 56.7597395,31.6581619 56.4697378,31.6581619 C55.4229021,31.6581619 54.75802,30.8092955 54.75802,29.8481823 C54.75802,28.8870692 55.4229021,28.0382028 56.4697378,28.0382028 C56.7597395,28.0382028 57.0426681,28.1364188 57.2477913,28.304789 L57.2477913,28.0943262 L58.3158466,28.0943262 L58.3158466,31.6020385 L57.2477913,31.6020385 Z M56.6465681,30.6900333 C56.908277,30.6900333 57.0992538,30.5918173 57.2477913,30.4024009 L57.2477913,29.3009792 C57.0992538,29.1115628 56.908277,29.0063314 56.6465681,29.0063314 C56.1372967,29.0063314 55.8331485,29.3851643 55.8331485,29.8481823 C55.8331485,30.3112004 56.1372967,30.6900333 56.6465681,30.6900333 Z M59.1504858,31.6020385 L60.2185412,31.6020385 L60.2185412,29.3079947 C60.3953715,29.1115628 60.6500072,29.0063314 60.8551304,29.0063314 C61.3219625,29.0063314 61.5058661,29.3641181 61.5058661,29.8341515 L61.5058661,31.6020385 L62.5739214,31.6020385 L62.5739214,29.644735 C62.5739214,28.6976527 62.0292839,28.0382028 61.0319608,28.0382028 C60.7207393,28.0382028 60.4307376,28.1364188 60.2185412,28.3118044 L60.2185412,28.0943262 L59.1504858,28.0943262 L59.1504858,31.6020385 Z M63.917832,31.6581619 L65.9619909,29.6166733 L63.917832,27.5751848 L63.3166089,28.1714959 L64.7666177,29.6166733 L63.3166089,31.0618508 L63.917832,31.6581619 Z M11.5831221,40.5151352 L12.1843453,39.9188242 L10.7343365,38.4736467 L12.1843453,37.0284693 L11.5831221,36.4321582 L9.53896332,38.4736467 L11.5831221,40.5151352 Z M12.5450792,40.4590118 L13.5070363,40.4590118 L15.8482701,35.4780605 L14.8863131,35.4780605 L12.5450792,40.4590118 Z M18.5643843,40.4590118 L18.5643843,40.2555645 C18.3592611,40.4239347 18.0763325,40.5151352 17.7863308,40.5151352 C16.7394951,40.5151352 16.074613,39.6662689 16.074613,38.7051557 C16.074613,37.7440426 16.7394951,36.8951762 17.7863308,36.8951762 C18.0763325,36.8951762 18.3592611,36.9933922 18.5643843,37.1617623 L18.5643843,36.9512996 L19.6324396,36.9512996 L19.6324396,40.4590118 L18.5643843,40.4590118 Z M17.9631611,39.5470067 C18.22487,39.5470067 18.4158468,39.4487907 18.5643843,39.2593743 L18.5643843,38.1579526 C18.4158468,37.9685362 18.22487,37.8633048 17.9631611,37.8633048 C17.4538897,37.8633048 17.1497415,38.2421377 17.1497415,38.7051557 C17.1497415,39.1681737 17.4538897,39.5470067 17.9631611,39.5470067 Z M21.0117163,40.5151352 L23.0558751,38.4736467 L21.0117163,36.4321582 L20.4104931,37.0284693 L21.860502,38.4736467 L20.4104931,39.9188242 L21.0117163,40.5151352 Z M6.91480095,49.3721086 L7.51602414,48.7757975 L6.06601528,47.3306201 L7.51602414,45.8854426 L6.91480095,45.2891316 L4.87064212,47.3306201 L6.91480095,49.3721086 Z M7.87675805,49.3159852 L8.83871514,49.3159852 L11.179949,44.3350338 L10.2179919,44.3350338 L7.87675805,49.3159852 Z M13.8960631,49.3159852 L13.8960631,49.1125379 C13.6909399,49.2809081 13.4080113,49.3721086 13.1180096,49.3721086 C12.0711739,49.3721086 11.4062918,48.5232422 11.4062918,47.5621291 C11.4062918,46.6010159 12.0711739,45.7521496 13.1180096,45.7521496 C13.4080113,45.7521496 13.6909399,45.8503655 13.8960631,46.0187357 L13.8960631,44.3350338 L14.9641184,44.3350338 L14.9641184,49.3159852 L13.8960631,49.3159852 Z M13.2948399,48.40398 C13.5565488,48.40398 13.7475256,48.3057641 13.8960631,48.1163476 L13.8960631,47.014926 C13.7475256,46.8255095 13.5565488,46.7202782 13.2948399,46.7202782 C12.7855685,46.7202782 12.4814203,47.0991111 12.4814203,47.5621291 C12.4814203,48.0251471 12.7855685,48.40398 13.2948399,48.40398 Z M15.8411969,45.3101778 L16.8314469,45.3101778 C16.9233987,45.2049465 16.9729112,45.064638 16.9729112,44.9102986 C16.9729112,44.5595274 16.6899826,44.2789104 16.3363219,44.2789104 C15.9826612,44.2789104 15.6997327,44.5595274 15.6997327,44.9102986 C15.6997327,45.064638 15.7492452,45.2049465 15.8411969,45.3101778 Z M15.7987577,49.3159852 L16.866813,49.3159852 L16.866813,45.808273 L15.7987577,45.808273 L15.7987577,49.3159852 Z M19.2434128,49.3721086 L21.3017181,45.808273 L20.0709789,45.808273 L19.2434128,47.3376355 L18.4158468,45.808273 L17.1851076,45.808273 L19.2434128,49.3721086 Z M22.157577,49.3721086 L24.2017358,47.3306201 L22.157577,45.2891316 L21.5563538,45.8854426 L23.0063626,47.3306201 L21.5563538,48.7757975 L22.157577,49.3721086 Z M2.24647976,58.229082 L2.84770294,57.6327709 L1.39769408,56.1875935 L2.84770294,54.742416 L2.24647976,54.1461049 L0.202320928,56.1875935 L2.24647976,58.229082 Z M3.20843685,58.1729586 L4.17039394,58.1729586 L6.51162776,53.1920072 L5.54967066,53.1920072 L3.20843685,58.1729586 Z M6.92894738,58.1729586 L6.92894738,53.1920072 L7.99700268,53.1920072 L7.99700268,54.8757091 C8.20212589,54.7073389 8.48505444,54.609123 8.77505622,54.609123 C9.82189188,54.609123 10.486774,55.4579893 10.486774,56.4191025 C10.486774,57.3802156 9.82189188,58.229082 8.77505622,58.229082 C8.48505444,58.229082 8.20212589,58.1378815 7.99700268,57.9695113 L7.99700268,58.1729586 L6.92894738,58.1729586 Z M8.59822587,55.5772515 C8.33651695,55.5772515 8.13846696,55.6824829 7.99700268,55.8718994 L7.99700268,56.973321 C8.13846696,57.1627375 8.33651695,57.2609534 8.59822587,57.2609534 C9.10749727,57.2609534 9.41164547,56.8821205 9.41164547,56.4191025 C9.41164547,55.9560845 9.10749727,55.5772515 8.59822587,55.5772515 Z M12.7643489,57.2399071 C13.2028881,57.2399071 13.528256,56.9031668 13.528256,56.4191025 C13.528256,55.9350382 13.2028881,55.5982978 12.7643489,55.5982978 C12.3258096,55.5982978 12.0004418,55.9350382 12.0004418,56.4191025 C12.0004418,56.9031668 12.3258096,57.2399071 12.7643489,57.2399071 Z M12.7643489,58.229082 C11.7458061,58.229082 10.9253133,57.4152927 10.9253133,56.4191025 C10.9253133,55.4229122 11.7458061,54.609123 12.7643489,54.609123 C13.7828917,54.609123 14.6033845,55.4229122 14.6033845,56.4191025 C14.6033845,57.4152927 13.7828917,58.229082 12.7643489,58.229082 Z M17.5316951,58.1729586 L17.5316951,57.9695113 C17.3265719,58.1378815 17.0436433,58.229082 16.7536415,58.229082 C15.7068059,58.229082 15.0419238,57.3802156 15.0419238,56.4191025 C15.0419238,55.4579893 15.7068059,54.609123 16.7536415,54.609123 C17.0436433,54.609123 17.3265719,54.7073389 17.5316951,54.8757091 L17.5316951,53.1920072 L18.5997504,53.1920072 L18.5997504,58.1729586 L17.5316951,58.1729586 Z M16.9304719,57.2609534 C17.1921808,57.2609534 17.3831576,57.1627375 17.5316951,56.973321 L17.5316951,55.8718994 C17.3831576,55.6824829 17.1921808,55.5772515 16.9304719,55.5772515 C16.4212005,55.5772515 16.1170523,55.9560845 16.1170523,56.4191025 C16.1170523,56.8821205 16.4212005,57.2609534 16.9304719,57.2609534 Z M19.8021967,59.4637967 L20.933911,59.4637967 L22.7163609,54.6652464 L21.5846466,54.6652464 L20.8490324,56.8821205 L20.1134181,54.6652464 L18.9817039,54.6652464 L20.2831753,58.1729586 L19.8021967,59.4637967 Z M23.6429519,58.229082 L25.6871107,56.1875935 L23.6429519,54.1461049 L23.0417287,54.742416 L24.4917376,56.1875935 L23.0417287,57.6327709 L23.6429519,58.229082 Z" id="&lt;body&gt;-&lt;div-id=“let’"></path>
                </g>
                <rect id="Rectangle-49" fill="#FFFFFF" x="52.6666667" y="49.4695122" width="105.333333" height="83.5304878"></rect>
                <rect id="Rectangle-2" fill="#EAEAEA" x="52.6666667" y="49.4695122" width="105.333333" height="8.1097561"></rect>
                <rect id="Rectangle-3" fill="#FFFFFF" x="77.7846154" y="51.0914634" width="55.0974359" height="4.05487805"></rect>
                <ellipse id="Oval" fill="#FF0000" cx="56.3128205" cy="52.3079268" rx="1.21538462" ry="1.21646341"></ellipse>
                <ellipse id="Oval" fill="#68FF00" cx="61.9846154" cy="52.3079268" rx="1.21538462" ry="1.21646341"></ellipse>
            </g>
            <circle id="Oval-2" fill="#0652FD" cx="112" cy="114" r="15"></circle>
        </g>
    </g>
</svg>