<?xml version="1.0" encoding="UTF-8"?>
<svg width="261px" height="203px" viewBox="0 0 261 203" version="1.1" xmlns="http://www.w3.org/2000/svg" xmlns:xlink="http://www.w3.org/1999/xlink">
    <!-- Generator: Sketch 43.2 (39069) - http://www.bohemiancoding.com/sketch -->
    <title>Group 11</title>
    <desc>Created with Sketch.</desc>
    <defs>
        <rect id="path-1" x="0" y="0" width="258.8853" height="202.197628"></rect>
    </defs>
    <g id="Page-1" stroke="none" stroke-width="1" fill="none" fill-rule="evenodd">
        <g id="Group-11">
            <g id="Group-4">
                <g id="Group-8">
                    <g id="Group-6" transform="translate(1.226945, 0.000000)">
                        <mask id="mask-2" fill="white">
                            <use xlink:href="#path-1"></use>
                        </mask>
                        <use id="Mask" fill="#F9F9F9" xlink:href="#path-1"></use>
                        <g id="Group-9" mask="url(#mask-2)">
                            <g transform="translate(-181.926983, -9.803521)" id="Group-5">
                                <g transform="translate(-0.000000, 0.000000)">
                                    <path d="M180.854946,77.1929248 C181.008401,77.173418 181.308469,77.1344813 181.750423,77.0759279 C182.485677,76.978516 183.353358,76.8611144 184.348738,76.7235363 C187.191069,76.3306793 190.487452,75.8548777 194.20007,75.2946361 C204.804993,73.6943318 216.620859,71.7383436 229.345211,69.414676 C265.702806,62.7752049 302.061588,54.5212128 336.004473,44.5551055 C377.326275,32.4224445 412.181383,18.5672555 438.500684,2.8906517 L437.243809,0.785668819 C411.129913,16.3399275 376.453212,30.1241982 335.312378,42.2037243 C301.460969,52.142973 265.183007,60.3786177 228.903858,67.0037633 C216.20535,69.3227116 204.414274,71.2745962 193.833479,72.8712593 C190.131097,73.4299562 186.844774,73.9043058 184.01236,74.2957923 C183.02158,74.4327344 182.158463,74.5495185 181.427741,74.6463301 C180.990109,74.7043109 180.694329,74.7426911 180.545132,74.7616566 L180.854946,77.1929248 Z" id="Path-5" fill="#D8D8D8" fill-rule="nonzero"></path>
                                    <path d="M0.39962393,103.420907 C0.644259376,103.408857 1.12479784,103.384527 1.83363066,103.347632 C3.01430926,103.286177 4.4080632,103.211587 6.00728395,103.123578 C10.5756299,102.872171 15.8745288,102.563671 21.8431139,102.1958 C38.8948727,101.144822 57.8948561,99.8290269 78.3561726,98.2301796 C136.818713,93.6619168 195.282005,87.7426477 249.852733,80.3259919 C336.653503,68.5289818 405.186953,54.0732433 448.630575,36.6751783 L447.717327,34.4003517 C404.510257,51.7036837 336.135944,66.1258555 249.521867,77.8974923 C195.002797,85.3071273 136.584162,91.221875 78.1647752,95.7867658 C57.7174174,97.3845223 38.7307746,98.6993939 21.6919714,99.749573 C15.7288599,100.117107 10.4353341,100.425294 5.87227959,100.67641 C4.27551016,100.764284 2.88418694,100.838743 1.7059204,100.900073 C0.999386144,100.936849 0.521127551,100.961063 0.278754969,100.973001 L0.39962393,103.420907 Z" id="Path-5" fill="#D8D8D8" fill-rule="nonzero"></path>
                                    <path d="M178.251219,99.2606435 C178.456312,99.2597971 178.858383,99.2572732 179.451079,99.2522372 C180.437792,99.2438535 181.602424,99.2312885 182.938621,99.2137076 C186.754983,99.1634941 191.181364,99.0832012 196.166949,98.9661511 C210.409372,98.6317715 226.278643,98.0702256 243.368307,97.2280736 C292.19845,94.8218002 341.029782,90.6516305 386.61339,84.2890249 C407.837089,81.3265998 427.889293,77.9434416 446.580081,74.1141348 L446.086987,71.7132458 C427.449899,75.5315506 407.448363,78.9061603 386.273754,81.8617333 C340.77099,88.2130546 292.00978,92.3772359 243.247381,94.7801709 C226.179656,95.6212419 210.33135,96.1820459 196.109282,96.5159476 C191.132295,96.6327958 186.714351,96.7129357 182.906297,96.7630399 C181.573948,96.7805701 180.413132,96.793094 179.430204,96.8014456 C178.841115,96.8064509 178.442622,96.8089523 178.241079,96.8097841 L178.251219,99.2606435 Z" id="Path" fill="#D8D8D8" fill-rule="nonzero"></path>
                                </g>
                                <g transform="translate(224.377470, 168.482393) scale(1, -1) translate(-224.377470, -168.482393) translate(-0.000000, 116.385555)">
                                    <path d="M180.854946,77.1929248 C181.008401,77.173418 181.308469,77.1344813 181.750423,77.0759279 C182.485677,76.978516 183.353358,76.8611144 184.348738,76.7235363 C187.191069,76.3306793 190.487452,75.8548777 194.20007,75.2946361 C204.804993,73.6943318 216.620859,71.7383436 229.345211,69.414676 C265.702806,62.7752049 302.061588,54.5212128 336.004473,44.5551055 C377.326275,32.4224445 412.181383,18.5672555 438.500684,2.8906517 L437.243809,0.785668819 C411.129913,16.3399275 376.453212,30.1241982 335.312378,42.2037243 C301.460969,52.142973 265.183007,60.3786177 228.903858,67.0037633 C216.20535,69.3227116 204.414274,71.2745962 193.833479,72.8712593 C190.131097,73.4299562 186.844774,73.9043058 184.01236,74.2957923 C183.02158,74.4327344 182.158463,74.5495185 181.427741,74.6463301 C180.990109,74.7043109 180.694329,74.7426911 180.545132,74.7616566 L180.854946,77.1929248 Z" id="Path-5" fill="#D8D8D8" fill-rule="nonzero"></path>
                                    <path d="M0.39962393,103.420907 C0.644259376,103.408857 1.12479784,103.384527 1.83363066,103.347632 C3.01430926,103.286177 4.4080632,103.211587 6.00728395,103.123578 C10.5756299,102.872171 15.8745288,102.563671 21.8431139,102.1958 C38.8948727,101.144822 57.8948561,99.8290269 78.3561726,98.2301796 C136.818713,93.6619168 195.282005,87.7426477 249.852733,80.3259919 C336.653503,68.5289818 405.186953,54.0732433 448.630575,36.6751783 L447.717327,34.4003517 C404.510257,51.7036837 336.135944,66.1258555 249.521867,77.8974923 C195.002797,85.3071273 136.584162,91.221875 78.1647752,95.7867658 C57.7174174,97.3845223 38.7307746,98.6993939 21.6919714,99.749573 C15.7288599,100.117107 10.4353341,100.425294 5.87227959,100.67641 C4.27551016,100.764284 2.88418694,100.838743 1.7059204,100.900073 C0.999386144,100.936849 0.521127551,100.961063 0.278754969,100.973001 L0.39962393,103.420907 Z" id="Path-5" fill="#D8D8D8" fill-rule="nonzero"></path>
                                    <path d="M178.251219,99.2606435 C178.456312,99.2597971 178.858383,99.2572732 179.451079,99.2522372 C180.437792,99.2438535 181.602424,99.2312885 182.938621,99.2137076 C186.754983,99.1634941 191.181364,99.0832012 196.166949,98.9661511 C210.409372,98.6317715 226.278643,98.0702256 243.368307,97.2280736 C292.19845,94.8218002 341.029782,90.6516305 386.61339,84.2890249 C407.837089,81.3265998 427.889293,77.9434416 446.580081,74.1141348 L446.086987,71.7132458 C427.449899,75.5315506 407.448363,78.9061603 386.273754,81.8617333 C340.77099,88.2130546 292.00978,92.3772359 243.247381,94.7801709 C226.179656,95.6212419 210.33135,96.1820459 196.109282,96.5159476 C191.132295,96.6327958 186.714351,96.7129357 182.906297,96.7630399 C181.573948,96.7805701 180.413132,96.793094 179.430204,96.8014456 C178.841115,96.8064509 178.442622,96.8089523 178.241079,96.8097841 L178.251219,99.2606435 Z" id="Path" fill="#D8D8D8" fill-rule="nonzero"></path>
                                </g>
                            </g>
                        </g>
                        <polygon id="Path-5" fill="#D8D8D8" fill-rule="nonzero" mask="url(#mask-2)" points="-6.38681804 101.711534 260.112245 101.711534 260.112245 99.260654 -6.38681804 99.260654"></polygon>
                        <path d="M-3.72023364,85.025681 C20.2775454,72.3365519 40.9494492,65.9980531 59.8478168,64.6665245 C74.4569278,63.6372055 86.4432012,65.3676387 102.740512,69.80691 C109.787786,71.7265373 117.739577,76.6927943 127.78442,85.052048 C131.846806,88.4327391 136.150561,92.2674463 141.815457,97.4994987 C143.455049,99.0138131 153.674142,108.540176 156.728847,111.346905 C171.538856,124.954664 182.44902,133.842268 193.779668,140.866522 C208.089917,149.737931 221.588165,154.405462 234.959882,154.405462 L234.959882,151.954581 C222.100457,151.954581 209.025885,147.433552 195.073766,138.78416 C183.904649,131.860045 173.095658,123.054858 158.39022,109.543181 C155.343561,106.743845 145.127631,97.2204312 143.481484,95.7000629 C137.788226,90.4418153 133.456243,86.581956 129.35523,83.1691201 C119.062173,74.6033042 110.852998,69.4762994 103.386173,67.4423893 C86.8456773,62.9368762 74.6054021,61.1697733 59.6751392,62.2217198 C40.4183766,63.5784999 19.4187953,70.0174726 -4.86837822,82.8596226 L-3.72023364,85.025681 Z" id="Path-3" fill="#0652FD" fill-rule="nonzero" mask="url(#mask-2)"></path>
                        <ellipse id="Oval-2" fill="#0652FD" mask="url(#mask-2)" cx="236.186826" cy="20.2197628" rx="7.97513958" ry="7.96536112"></ellipse>
                        <ellipse id="Oval-2" fill="#0652FD" mask="url(#mask-2)" cx="236.186826" cy="65.5610492" rx="7.97513958" ry="7.96536112"></ellipse>
                        <ellipse id="Oval-2" fill="#0652FD" mask="url(#mask-2)" cx="236.186826" cy="152.567301" rx="7.97513958" ry="7.96536112"></ellipse>
                        <path d="M-7.36166731,104.775135 C5.33360414,104.775135 14.8590917,106.523275 42.251719,112.909256 C67.4687312,118.788041 80.6428369,121.042572 95.873855,121.106448 C104.759054,121.143711 113.127115,120.222054 121.151616,118.218388 C138.828238,113.804651 151.024436,106.973911 168.009449,93.9078026 C169.34718,92.8787224 174.441409,88.918273 175.661287,87.9794137 C185.467247,80.432414 192.030979,76.1385058 199.803232,72.6874723 C209.509697,68.3776101 220.003769,66.1737693 232.505992,66.1737693 L232.505992,63.722889 C219.661929,63.722889 208.828143,65.9980723 198.806388,70.4479297 C190.815541,73.9960232 184.111484,78.3817299 174.163479,86.0380526 C172.937197,86.9818409 167.84326,90.9420625 166.512081,91.9661021 C149.770862,104.844668 137.845484,111.523729 120.556461,115.840685 C112.739049,117.792641 104.57318,118.692029 95.8841587,118.655589 C80.8949884,118.592727 67.8520476,116.360643 42.8094979,110.52253 C15.2126631,104.088943 5.59700562,102.324254 -7.36166731,102.324254 L-7.36166731,104.775135 Z" id="Path-3" fill="#0652FD" fill-rule="nonzero" mask="url(#mask-2)"></path>
                    </g>
                    <path d="M238.640715,18.9943227 C193.243767,19.6070428 139.258207,69.8500898 114.105843,84.5553719 C88.95348,99.260654 38.6487534,123.156737 0,123.156737" id="Path-3" stroke="#0652FD" stroke-width="2"></path>
                </g>
            </g>
        </g>
    </g>
</svg>