<?xml version="1.0" encoding="UTF-8" standalone="no"?>
<svg width="14px" height="20px" viewBox="0 0 14 20" version="1.1" xmlns="http://www.w3.org/2000/svg" xmlns:xlink="http://www.w3.org/1999/xlink">
    <!-- Generator: Sketch 39.1 (31720) - http://www.bohemiancoding.com/sketch -->
    <title>Page 1</title>
    <desc>Created with Sketch.</desc>
    <defs></defs>
    <g id="layout" stroke="none" stroke-width="1" fill="none" fill-rule="evenodd">
        <g id="how_it_works-copy-6" transform="translate(-1225.000000, -1476.000000)" fill="#FFFFFF">
            <path d="M1232.56032,1483.26623 L1232.56032,1495.11152 C1232.56032,1495.59983 1232.15972,1496.00043 1231.67141,1496.00043 C1231.1831,1496.00043 1230.7825,1495.59983 1230.7825,1495.11152 L1230.7825,1483.26623 L1226.49293,1487.08942 C1226.11573,1487.42276 1225.56017,1487.40084 1225.22683,1487.02216 C1224.89349,1486.64497 1224.93734,1486.0894 1225.29409,1485.77799 L1231.07199,1480.64484 L1231.67141,1480.1112 L1232.27083,1480.64484 L1238.04873,1485.77799 C1238.42622,1486.11133 1238.44933,1486.6669 1238.11599,1487.02216 C1237.78265,1487.39965 1237.22708,1487.42276 1236.87182,1487.08942 L1232.56032,1483.26623 Z M1237.44931,1477.77782 C1237.93762,1477.77782 1238.33822,1477.37721 1238.33822,1476.88891 C1238.33822,1476.4006 1237.93762,1476 1237.44931,1476 L1225.89351,1476 C1225.4052,1476 1225.0046,1476.4006 1225.0046,1476.88891 C1225.0046,1477.37721 1225.4052,1477.77782 1225.89351,1477.77782 L1237.44931,1477.77782 Z" id="Page-1"></path>
        </g>
    </g>
</svg>